<svg width="58" height="46" viewBox="0 0 58 46" fill="none" xmlns="http://www.w3.org/2000/svg">
<path d="M10.5247 44.8385V41.8523C10.5247 40.7064 9.82768 39.9618 8.68443 39.9618C8.08244 39.9618 7.44085 40.1625 6.992 40.8041C6.64348 40.2549 6.14974 39.9618 5.39989 39.9618C4.83223 39.9381 4.29097 40.1995 3.95829 40.6589V40.0569H3.01306V44.8332H3.95829V42.1005C3.95829 41.2582 4.45467 40.8569 5.15171 40.8569C5.84875 40.8569 6.24743 41.3057 6.24743 42.1005V44.8385H7.19266V42.1005C7.19266 41.2582 7.68904 40.8569 8.38608 40.8569C9.08312 40.8569 9.4818 41.3057 9.4818 42.1005V44.8385H10.5247ZM26.0523 40.1097H24.3097V38.6681H23.3671V40.1097H22.3718V40.9519H23.3671V43.1962C23.3671 44.2919 23.7658 44.9388 24.9592 44.9388C25.4107 44.9282 25.8543 44.8094 26.2504 44.5903L25.952 43.748C25.6827 43.917 25.3711 44.0015 25.0569 43.9962C24.5606 43.9962 24.3097 43.6979 24.3097 43.1988V40.9123H26.0523V40.1097ZM34.9079 39.9618C34.3851 39.9513 33.8914 40.2153 33.6142 40.6589V40.0569H32.6689V44.8332H33.6142V42.1506C33.6142 41.3533 34.0128 40.8569 34.6597 40.8569C34.8789 40.8648 35.0954 40.8991 35.3066 40.9572L35.6049 40.0622C35.3779 40.0041 35.1429 39.9724 34.9079 39.9618ZM21.5242 40.4582C21.0278 40.1097 20.3308 39.9618 19.5836 39.9618C18.3902 39.9618 17.643 40.5084 17.643 41.4562C17.643 42.2536 18.1922 42.6998 19.2351 42.8503L19.7315 42.9005C20.2806 43.0008 20.6265 43.1988 20.6265 43.447C20.6265 43.7956 20.2278 44.049 19.4806 44.049C18.9103 44.0596 18.3506 43.8853 17.8885 43.5526L17.3921 44.2998C18.0892 44.7962 18.9341 44.9018 19.4357 44.9018C20.8298 44.9018 21.5744 44.255 21.5744 43.3599C21.5744 42.5176 20.9724 42.1163 19.9321 41.9658L19.4357 41.9157C18.9869 41.8655 18.5935 41.715 18.5935 41.4193C18.5935 41.0708 18.9922 40.8173 19.5387 40.8173C20.1407 40.8173 20.7321 41.0655 21.0331 41.216L21.5216 40.4661L21.5242 40.4582ZM35.9535 42.449C35.9535 43.8906 36.8987 44.9362 38.4406 44.9362C39.1377 44.9362 39.634 44.7883 40.1331 44.387L39.6367 43.6398C39.2855 43.9249 38.8472 44.0833 38.3931 44.0886C37.5508 44.0886 36.8987 43.4417 36.8987 42.4965C36.8987 41.5513 37.5429 40.9097 38.3931 40.9097C38.8472 40.915 39.2855 41.0734 39.6367 41.3586L40.1331 40.6113C39.6367 40.2127 39.1377 40.0622 38.4406 40.0622C36.9462 39.9618 35.9535 41.0074 35.9535 42.4516V42.4464V42.449ZM29.2867 39.9618C27.8926 39.9618 26.9474 40.9572 26.9474 42.449C26.9474 43.9408 27.9428 44.9362 29.3844 44.9362C30.0867 44.952 30.7732 44.7223 31.325 44.2893L30.8286 43.5922C30.43 43.9012 29.9415 44.0754 29.4346 44.0886C28.7877 44.0886 28.0906 43.6899 27.993 42.845H31.5257V42.4464C31.5257 40.9519 30.6306 39.9592 29.2867 39.9592V39.9618ZM29.2365 40.8569C29.9336 40.8569 30.43 41.3057 30.4801 42.0503H27.8926C28.0405 41.3533 28.4946 40.8569 29.2365 40.8569ZM16.3492 42.449V40.0595H15.404V40.6615C15.0555 40.2127 14.5617 39.9645 13.8621 39.9645C12.5181 39.9645 11.5228 41.01 11.5228 42.4516C11.5228 43.8932 12.5181 44.9388 13.8621 44.9388C14.5591 44.9388 15.0555 44.6906 15.404 44.2418V44.8437H16.3492V42.449ZM12.5155 42.449C12.5155 41.5539 13.0647 40.8569 14.0099 40.8569C14.905 40.8569 15.4515 41.5539 15.4515 42.449C15.4515 43.3942 14.8495 44.0411 14.0099 44.0411C13.0647 44.0913 12.5155 43.3441 12.5155 42.449ZM49.2923 39.9618C48.7695 39.9513 48.2757 40.2153 47.9985 40.6589V40.0569H47.0533V44.8332H47.9985V42.1506C47.9985 41.3533 48.3972 40.8569 49.0441 40.8569C49.2632 40.8648 49.4797 40.8991 49.691 40.9572L49.9893 40.0622C49.7622 40.0041 49.5273 39.9724 49.2923 39.9618ZM45.609 42.449V40.0595H44.6638V40.6615C44.3153 40.2127 43.8216 39.9645 43.1219 39.9645C41.778 39.9645 40.7826 41.01 40.7826 42.4516C40.7826 43.8932 41.778 44.9388 43.1219 44.9388C43.8189 44.9388 44.3153 44.6906 44.6638 44.2418V44.8437H45.609V42.449ZM41.778 42.449C41.778 41.5539 42.3272 40.8569 43.2724 40.8569C44.1674 40.8569 44.714 41.5539 44.714 42.449C44.714 43.3942 44.112 44.0411 43.2724 44.0411C42.3272 44.0913 41.778 43.3441 41.778 42.449ZM55.2145 42.449V38.1691H54.2692V40.6562C53.9207 40.2074 53.427 39.9592 52.7273 39.9592C51.3834 39.9592 50.388 41.0048 50.388 42.4464C50.388 43.888 51.3834 44.9335 52.7273 44.9335C53.4243 44.9335 53.9207 44.6853 54.2692 44.2365V44.8385H55.2145V42.4464V42.449ZM51.3834 42.449C51.3834 41.5539 51.9326 40.8569 52.8778 40.8569C53.7729 40.8569 54.3194 41.5539 54.3194 42.449C54.3194 43.3942 53.7174 44.0411 52.8778 44.0411C51.9299 44.0913 51.3834 43.3467 51.3834 42.449Z" fill="white"/>
<path d="M37.6961 3.8313H20.4285V31.998H37.6961V3.8313Z" fill="#FF5F00"/>
<path d="M22.1711 17.9149C22.1711 12.4257 24.6847 7.23756 28.9884 3.83157C21.21 -2.28337 9.94914 -0.934178 3.83157 6.84415C-2.28337 14.6198 -0.934178 25.8834 6.84415 31.9983C13.3419 37.1073 22.4906 37.1073 28.9884 31.9983C24.6847 28.5923 22.1711 23.4041 22.1711 17.9149Z" fill="#EB001B"/>
<path d="M58 17.9153C58.0079 27.7979 49.9999 35.8165 40.1172 35.8244C36.1013 35.8271 32.2016 34.4805 29.0438 31.9986C36.8222 25.8494 38.1397 14.5568 31.9904 6.77849C31.127 5.6854 30.1369 4.69793 29.0438 3.83191C36.8142 -2.27511 48.0646 -0.928554 54.1742 6.84185C56.6561 9.99965 58.0027 13.8994 58 17.9153Z" fill="#F79E1B"/>
</svg>
