<svg width="86" height="46" viewBox="0 0 86 46" fill="none" xmlns="http://www.w3.org/2000/svg">
<path d="M68.3886 11.7515L75.5429 10.5309V36.7197H68.3886V11.7515ZM78.8396 11.7515V36.7197H86V10.5309L78.8396 11.7515ZM58.1939 36.7197H65.3543V17.5648H58.1939V36.7197ZM10.8854 20.2741C9.9805 20.2169 7.88426 20.0873 7.88426 18.2911C7.88426 16.1213 10.9004 16.1213 12.0315 16.1213C14.0222 16.1213 16.598 16.6818 18.4378 17.2062C18.4378 17.2062 19.4633 17.5498 20.338 17.9054L20.4195 17.9265V11.9835L20.3079 11.9534C18.1362 11.2301 15.6117 10.5309 10.9306 10.5309C2.85933 10.5309 0 15.0123 0 18.8517C0 21.0637 0.995335 26.2744 10.2369 26.8741C11.0211 26.9193 13.0992 27.0338 13.0992 28.8932C13.0992 30.4272 11.3981 31.3313 8.53274 31.3313C5.39592 31.3313 2.34959 30.5688 0.5037 29.8456V35.9663C3.27254 36.6564 6.39126 37.003 10.0469 37.003C17.9372 37.003 21.4721 32.7628 21.4721 28.5587C21.4721 23.7941 17.5179 20.6991 10.8823 20.2741H10.8854ZM54.1613 17.2846C47.5439 17.4865 44.1869 20.3163 44.1869 25.9428V36.7197H51.4045V27.9319C51.4045 24.5626 51.866 23.119 56.0615 22.9804V17.384C55.3557 17.2424 54.1613 17.2846 54.1613 17.2846ZM34.7402 17.5438C34.5804 17.9265 33.4342 21.0125 30.6624 24.213V10.5309L23.2758 11.9233V36.7197H30.6624V29.056C32.8008 32.1148 33.8595 36.7197 33.8595 36.7197H42.7089C41.8343 33.251 38.0037 26.856 38.0037 26.856C41.4391 22.7032 42.9502 18.2791 43.1885 17.5438H34.7402ZM61.7741 15.7265C63.7226 15.7265 65.303 14.2197 65.303 12.3633C65.303 10.5068 63.7226 9 61.7741 9C59.8257 9 58.2482 10.5068 58.2482 12.3633C58.2482 14.2197 59.8287 15.7265 61.7741 15.7265Z" fill="#852165"/>
</svg>
