<svg width="80" height="46" viewBox="0 0 80 46" fill="none" xmlns="http://www.w3.org/2000/svg">
<path d="M30.3735 9.46134L19.901 34.6099H13.0673L7.91171 14.5389C7.59762 13.303 7.32598 12.8502 6.37521 12.329C4.82456 11.4804 2.25806 10.683 0 10.1904L0.152801 9.46134H11.1517C12.5523 9.46134 13.8144 10.3982 14.1313 12.0243L16.8534 26.5763L23.5823 9.46134H30.3735ZM57.1477 26.3969C57.176 19.7617 48.0277 19.3943 48.0928 16.4298C48.1126 15.5271 48.9672 14.5702 50.8347 14.3225C51.76 14.2 54.3152 14.106 57.2071 15.4473L58.3418 10.1163C56.7855 9.54677 54.7849 9 52.2948 9C45.9055 9 41.4092 12.4202 41.3724 17.3126C41.3299 20.9349 44.5812 22.954 47.0317 24.1586C49.5501 25.3917 50.3933 26.1805 50.3848 27.2826C50.365 28.9713 48.3758 29.7146 46.5167 29.743C43.2683 29.7943 41.3809 28.8602 39.8783 28.154L38.7068 33.6644C40.2151 34.3621 43.0051 34.9715 45.8942 35C52.6853 35 57.1279 31.6254 57.1477 26.3941M74.0209 34.607H80L74.7821 9.46134H69.2643C68.0221 9.46134 66.9779 10.1875 66.5139 11.3067L56.8138 34.6099H63.5993L64.9491 30.8537H73.2428L74.0238 34.6099L74.0209 34.607ZM66.8082 25.6964L70.2122 16.2532L72.1703 25.6964H66.8082ZM39.6095 9.46134L34.2643 34.6099H27.7985L33.1466 9.46134H39.6095Z" fill="white"/>
</svg>
